<?xml version="1.0" encoding="UTF-8" standalone="no"?>
<svg
   width="3930.0725"
   height="544.15033"
   viewBox="0 0 3930.0725 544.15033"
   version="1.1"
   id="svg19"
   sodipodi:docname="logo-dark.svg"
   inkscape:version="1.4.2 (ebf0e940d0, 2025-05-08)"
   xmlns:inkscape="http://www.inkscape.org/namespaces/inkscape"
   xmlns:sodipodi="http://sodipodi.sourceforge.net/DTD/sodipodi-0.dtd"
   xmlns="http://www.w3.org/2000/svg"
   xmlns:svg="http://www.w3.org/2000/svg">
  <defs
     id="defs19" />
  <sodipodi:namedview
     id="namedview19"
     pagecolor="#ffffff"
     bordercolor="#000000"
     borderopacity="0.25"
     inkscape:showpageshadow="2"
     inkscape:pageopacity="0.0"
     inkscape:pagecheckerboard="0"
     inkscape:deskcolor="#d1d1d1"
     inkscape:zoom="1.1309412"
     inkscape:cx="733.01778"
     inkscape:cy="323.62425"
     inkscape:window-width="1920"
     inkscape:window-height="1008"
     inkscape:window-x="0"
     inkscape:window-y="0"
     inkscape:window-maximized="1"
     inkscape:current-layer="g19" />
  <g
     id="g19"
     transform="matrix(1.2279367,0,0,1.251094,-882.39145,-800.79278)">
    <path
       fill="#405bc4"
       d="m 1067.38,955.893 c 4.6,7.779 10.06,15.011 16.29,21.557 -12,4.703 -36.95,77.09 -54.21,89.23 -3.23,2.27 -6.45,2.63 -10.13,1.3 -11.6989,-48.221 -58.95964,-78.64212 -54.757,-90.657 7.744,-8.377 -4.891,-10.13 16.965,-18.611 14.754,-1.085 77.812,-0.14 85.842,-2.819 z"
       id="path11"
       sodipodi:nodetypes="ccccccc"
       style="fill:#1e4471;fill-opacity:1.0" />
    <path
       fill="#090961"
       d="m 1321.24,668.105 c 3.16,-6.681 6.31,-19.394 8.43,-26.901 l 0.13,245.56 0.06,66.17 c 0.02,36.738 3.16,69.046 -25.47,96.806 -17.57,17.02 -39.37,25.48 -63.71,25.17 -21.89,-0.2 -42.75,-9.25 -57.85,-25.09 -15.98,-16.78 -12.52,-21.6 -20.99,-35.59 -29.73,-2.06 -57.62,-15.184 -78.17,-36.78 -6.23,-6.546 -11.69,-13.778 -16.29,-21.557 -8.03,2.679 -71.088,1.734 -85.842,2.819 -21.856,8.481 -9.221,10.234 -16.965,18.611 -21.926,21.555 -45.607,32.227 -75.827,35.887 -8.821,17.65 -12.517,28.39 -28.267,42.15 -48.635,42.49 -131.432,12.02 -139.828,-52.47 -2.65,-20.356 -1.984,-39.534 -1.969,-59.979 0.50864,-100.94749 0.22383,-201.88913 -9.7e-4,-302.83697 1.366,7.654 403.79137,27.9109 602.55897,28.03097 z"
       id="path1"
       sodipodi:nodetypes="cccccccccccccssccc"
       style="fill:#090961;fill-opacity:1.0" />
    <path
       fill="#e8ecee"
       d="m 888.746,1013.21 c -26.056,-0.41 -41.871,-1.06 -66.213,-12.95 -27.374,-13.368 -50.493,-39.367 -59.992,-68.428 -9.769,-29.943 -7.101,-62.555 7.402,-90.513 14.809,-28.197 40.294,-49.288 70.763,-58.561 31.723,-9.736 66.028,-6.319 95.207,9.483 28.575,14.986 49.832,40.941 58.893,71.908 9.984,34.398 3.365,63.903 -13.268,94.563 -15.31278,18.14003 -9.221,10.234 -16.965,18.611 -21.926,21.555 -45.607,32.227 -75.827,35.887 z"
       id="path2"
       sodipodi:nodetypes="cccccccccc" />
    <path
       fill="#090961"
       d="m 871.965,855.495 c 25.128,-3.212 48.098,14.567 51.287,39.698 3.19,25.131 -14.611,48.084 -39.745,51.25 -25.101,3.161 -48.017,-14.611 -51.202,-39.709 -3.185,-25.097 14.565,-48.03 39.66,-51.239 z"
       id="path3" />
    <path
       fill="#E8ECEE"
       d="m 1329.6491,641.7875 c -6.8656,38.8983 -28.2691,59.2195 -43.4991,70.9395 -66.35,51.426 -136.22,3.205 -204.38,48.424 -32.58,21.617 -49.3,44.776 -57.77,82.73 -19.29,-68.223 -67.337,-103.762 -138.608,-104.655 -26.667,-0.333 -58.367,2.092 -83.92,-6.028 -33.461,-10.633 -66.50214,-62.08503 -82.30314,-93.04403 197.87547,0.005 412.59534,1.514 610.48024,1.63353 z"
       id="path4"
       style="fill:#1e4471;fill-opacity:1.0"
       sodipodi:nodetypes="cccccscc" />
    <path
       fill="#e8ecee"
       d="m 1067.38,955.893 c -27.92,-47.253 -20,-107.456 19.19,-145.882 39.19,-38.426 99.53,-45.163 146.23,-16.325 46.7,28.838 67.7,85.812 50.89,138.058 -16.81,52.247 -67.09,86.286 -121.85,82.486 -29.73,-2.06 -57.62,-15.184 -78.17,-36.78 -6.23,-6.546 -11.69,-13.778 -16.29,-21.557 z"
       id="path5" />
    <path
       fill="#090961"
       d="m 1165.51,855.502 c 25.18,-2.789 47.85,15.382 50.61,40.568 2.76,25.186 -15.44,47.834 -40.63,50.562 -25.14,2.724 -47.74,-15.436 -50.5,-40.58 -2.75,-25.143 15.38,-47.765 40.52,-50.55 z"
       id="path6" />
  </g>
  <g
     id="g20"
     transform="matrix(2.4693581,0,0,2.4693581,-116.69126,-2901.3763)"
     style="fill:#1e4471;fill-opacity:1.0">
    <path
       fill="#405bc4"
       d="m 1532.24,1182.47 c 26.72,-2.26 49.35,1.17 71.35,17.41 18.4,13.81 30.59,34.33 33.93,57.09 1.26,8.4 1.01,17.5 1.18,25.97 0.5,24.87 -0.54,49.48 -16.16,70.21 -15.91,21.09 -41.67,31.96 -67.25,35.58 -20.59,4.84 -50.4,-5.18 -67.01,-16.74 -31.26,-21.75 -37.47,-49.01 -36.15,-85.21 0.91,-24.81 -2.63,-45.82 13.68,-67.46 17.57,-23.31 38.45,-32.42 66.43,-36.85 z m 23.59,161.37 c 33.98,-8.95 35.3,-17.94 38.03,-49.05 3.78,-43.18 -9.98,-74.61 -58.83,-70.44 -44.88,10.92 -43.24,49.83 -37.41,88.39 4.02,26.57 34.95,33.23 58.21,31.1 z"
       id="path7"
       style="fill:#1e4471;fill-opacity:1.0" />
    <path
       fill="#405bc4"
       d="m 474.383,1182.58 c 38.574,-3.76 62.831,4.55 93.184,27.6 -8.168,11.11 -20.651,23.14 -30.481,33.02 -11.835,-10.37 -18.27,-13.25 -33.657,-17.17 -9.71,-2.47 -45.099,0.56 -43.376,13.68 2.768,21.08 48.75,23.47 64.91,30.3 11.259,4.75 23.08,8.29 32.326,17.33 22.832,21.53 20.321,56.56 -0.312,78.41 -17.707,18.75 -41.488,23.64 -66.037,24.58 -30.839,-0.67 -61.398,-16.96 -84.427,-36.52 10.298,-10.82 18.822,-22.41 29.315,-33.09 23.376,17.78 61.729,38.48 88.523,13.95 1.499,-1.37 3.503,-7.52 2.489,-9.19 -10.572,-16.41 -38.465,-18.81 -57.794,-23.07 -43.413,-9.57 -72.684,-48.34 -45.327,-90.6 11.68,-18.04 28.762,-25.22 50.664,-29.23 z"
       id="path8"
       style="fill:#1e4471;fill-opacity:1.0" />
    <path
       fill="#405bc4"
       d="m 1271.21,1183.41 c 27.25,-2.49 49.02,5.47 71.98,19.93 4.13,2.61 6.86,4.99 7.8,9.79 -1.1,5.67 -20.3,25.64 -25.4,31.69 -13.7,-11.51 -26.05,-17.99 -44.06,-20.22 -9.69,-1.19 -32.31,4.99 -30.6,16.64 2.91,19.69 44.26,21.22 59.58,27.97 12.9,5.68 23.61,9.04 33.69,19.51 24.27,23.34 18.12,58.49 -4.37,80.2 -17.61,17.01 -37.9,21.65 -61.58,21.37 -32.38,-1.25 -56.65,-17.1 -81.28,-36.45 2.35,-3.06 25.54,-30.95 27.61,-30.06 17.35,7.58 32.67,19.89 52.24,21.39 13.52,1.03 36.72,0.74 38.3,-17.25 -5.65,-18.33 -43.5,-20.58 -60.13,-26.1 -23.98,-7.02 -49.35,-23.24 -50.55,-51.43 -1.8,-42.42 28.57,-64.4 66.77,-66.98 z"
       id="path9"
       style="fill:#1e4471;fill-opacity:1.0" />
    <path
       fill="#090961"
       d="m 937.235,1184.49 c 5.469,-0.07 27.287,-0.75 31.376,0.88 18.882,7.51 39.519,42.58 51.749,58.39 11.98,15.49 23.38,30.5 33.13,45.21 0.44,-34.12 -0.51,-69.56 -1,-103.74 13.27,-0.52 34.53,-0.14 47.63,0.43 l 0.16,108.17 0.2,95.19 c -24.87,-0.51 -29.55,2.52 -45.56,-18.59 -36.78,-48.54 -72.26,-98.08 -109.838,-146.02 -6.071,-7.75 -11.57,-17.64 -12.57,-27.28 -0.731,-7.05 -2.763,-10.88 4.723,-12.64 z"
       id="path10"
       style="fill:#1e4471;fill-opacity:1.0" />
    <path
       fill="#090961"
       d="m 676.119,1184.92 c 6.758,-0.26 14.153,-0.25 20.953,-0.15 40.688,0.6 81.935,-0.6 122.566,0.77 0.107,9.3 0.821,37.15 -0.673,45.29 -39.247,1.81 -81.84,-0.61 -121.324,-0.25 -23.291,0.22 -24.696,-28.12 -21.522,-45.66 z"
       id="path12"
       style="fill:#1e4471;fill-opacity:1.0" />
    <path
       fill="#090961"
       d="m 738.49,1341.5 79.621,-0.1 -0.103,45.68 -57.758,0.03 c -46.78,0.52 -82.624,13.03 -84.53,-45.46 z"
       id="path13"
       style="fill:#1e4471;fill-opacity:1.0" />
    <path
       fill="#090961"
       d="m 924.695,1235.23 c 7.045,2.25 40.369,48.59 48.768,58.6 0.352,4.73 0.284,10.75 0.202,15.55 -0.435,25.57 0.855,51.75 -0.186,77.25 -14.993,0.83 -33.428,0.28 -48.69,0.19 l -0.434,-97.8 c -0.034,-16.03 -0.698,-38.17 0.34,-53.79 z"
       id="path14"
       style="fill:#1e4471;fill-opacity:1.0" />
    <path
       fill="#090961"
       d="m 677.556,1263.28 c 39.119,1.1 78.954,-0.23 118.205,0.74 0.42,7.11 1.642,40.18 -1.729,44.39 -23.025,-0.09 -88.884,4.07 -106.356,-3.81 -4.793,-2.16 -7.32,-4.74 -9.042,-9.75 -2.446,-7.13 -4.504,-24.81 -1.078,-31.57 z"
       id="path15"
       style="fill:#1e4471;fill-opacity:1.0" />
    <path
       fill="#090961"
       d="m 1401.38,1341.03 c 13.04,-1.47 24.84,7.81 26.5,20.83 1.66,13.03 -7.44,24.97 -20.43,26.82 -8.59,1.22 -17.16,-2.27 -22.44,-9.14 -5.29,-6.87 -6.45,-16.06 -3.06,-24.04 3.39,-7.97 10.81,-13.51 19.43,-14.47 z"
       id="path16"
       style="fill:#1e4471;fill-opacity:1.0" />
    <path
       fill="#090961"
       d="m 863.998,1342.1 c 8.197,-2.56 17.138,-0.51 23.401,5.36 6.264,5.88 8.879,14.67 6.846,23.01 -2.034,8.34 -8.402,14.95 -16.666,17.28 -12.535,3.54 -25.587,-3.64 -29.301,-16.13 -3.714,-12.48 3.289,-25.63 15.72,-29.52 z"
       id="path17"
       style="fill:#1e4471;fill-opacity:1.0" />
    <path
       fill="#090961"
       d="m 1146.13,1340.43 c 12.76,-2.95 25.49,5.04 28.37,17.81 2.89,12.78 -5.17,25.46 -17.96,28.28 -12.7,2.79 -25.26,-5.19 -28.12,-17.87 -2.87,-12.68 5.05,-25.28 17.71,-28.22 z"
       id="path18"
       style="fill:#1e4471;fill-opacity:1.0" />
    <path
       fill="#090961"
       d="m 613.149,1342.3 c 12.478,-3.2 25.214,4.21 28.598,16.63 3.384,12.43 -3.837,25.28 -16.214,28.85 -8.172,2.35 -16.978,0.12 -23.045,-5.84 -6.067,-5.96 -8.453,-14.72 -6.245,-22.93 2.208,-8.22 8.669,-14.6 16.906,-16.71 z"
       id="path19"
       style="fill:#1e4471;fill-opacity:1.0" />
  </g>
</svg>
