<?xml version="1.0" encoding="UTF-8" standalone="no"?>
<svg
   width="2048"
   height="2048"
   viewBox="0 0 2048 2048"
   version="1.1"
   id="svg19"
   sodipodi:docname="square.svg"
   inkscape:version="1.4.2 (ebf0e940d0, 2025-05-08)"
   xmlns:inkscape="http://www.inkscape.org/namespaces/inkscape"
   xmlns:sodipodi="http://sodipodi.sourceforge.net/DTD/sodipodi-0.dtd"
   xmlns="http://www.w3.org/2000/svg"
   xmlns:svg="http://www.w3.org/2000/svg">
  <defs
     id="defs19" />
  <sodipodi:namedview
     id="namedview19"
     pagecolor="#ffffff"
     bordercolor="#000000"
     borderopacity="0.25"
     inkscape:showpageshadow="2"
     inkscape:pageopacity="0.0"
     inkscape:pagecheckerboard="0"
     inkscape:deskcolor="#d1d1d1"
     inkscape:zoom="0.34517824"
     inkscape:cx="1024.1086"
     inkscape:cy="1092.1894"
     inkscape:window-width="1920"
     inkscape:window-height="1008"
     inkscape:window-x="0"
     inkscape:window-y="0"
     inkscape:window-maximized="1"
     inkscape:current-layer="svg19" />
  <g
     id="g1"
     transform="matrix(2.651883,0,0,2.651883,-1691.9969,-1303.577)">
    <path
       fill="#405bc4"
       d="m 1067.38,955.893 c 4.6,7.779 10.06,15.011 16.29,21.557 -12,4.703 -36.95,77.09 -54.21,89.23 -3.23,2.27 -6.45,2.63 -10.13,1.3 -11.6989,-48.221 -58.95964,-78.64212 -54.757,-90.657 7.744,-8.377 -4.891,-10.13 16.965,-18.611 14.754,-1.085 77.812,-0.14 85.842,-2.819 z"
       id="path11"
       sodipodi:nodetypes="ccccccc" />
    <path
       fill="#090961"
       d="m 1321.24,668.105 c 3.16,-6.681 6.31,-19.394 8.43,-26.901 l 0.13,245.56 0.06,66.17 c 0.02,36.738 3.16,69.046 -25.47,96.806 -17.57,17.02 -39.37,25.48 -63.71,25.17 -21.89,-0.2 -42.75,-9.25 -57.85,-25.09 -15.98,-16.78 -12.52,-21.6 -20.99,-35.59 -29.73,-2.06 -57.62,-15.184 -78.17,-36.78 -6.23,-6.546 -11.69,-13.778 -16.29,-21.557 -8.03,2.679 -71.088,1.734 -85.842,2.819 -21.856,8.481 -9.221,10.234 -16.965,18.611 -21.926,21.555 -45.607,32.227 -75.827,35.887 -8.821,17.65 -12.517,28.39 -28.267,42.15 -48.635,42.49 -131.432,12.02 -139.828,-52.47 -2.65,-20.356 -1.984,-39.534 -1.969,-59.979 0.50864,-100.94749 0.22383,-201.88913 -9.7e-4,-302.83697 1.366,7.654 403.79137,27.9109 602.55897,28.03097 z"
       id="path1"
       sodipodi:nodetypes="cccccccccccccssccc" />
    <path
       fill="#e8ecee"
       d="m 888.746,1013.21 c -26.056,-0.41 -41.871,-1.06 -66.213,-12.95 -27.374,-13.368 -50.493,-39.367 -59.992,-68.428 -9.769,-29.943 -7.101,-62.555 7.402,-90.513 14.809,-28.197 40.294,-49.288 70.763,-58.561 31.723,-9.736 66.028,-6.319 95.207,9.483 28.575,14.986 49.832,40.941 58.893,71.908 9.984,34.398 3.365,63.903 -13.268,94.563 -15.31278,18.14003 -9.221,10.234 -16.965,18.611 -21.926,21.555 -45.607,32.227 -75.827,35.887 z"
       id="path2"
       sodipodi:nodetypes="cccccccccc" />
    <path
       fill="#090961"
       d="m 871.965,855.495 c 25.128,-3.212 48.098,14.567 51.287,39.698 3.19,25.131 -14.611,48.084 -39.745,51.25 -25.101,3.161 -48.017,-14.611 -51.202,-39.709 -3.185,-25.097 14.565,-48.03 39.66,-51.239 z"
       id="path3" />
    <path
       fill="#E8ECEE"
       d="m 1329.6491,641.7875 c -6.8656,38.8983 -28.2691,59.2195 -43.4991,70.9395 -66.35,51.426 -136.22,3.205 -204.38,48.424 -32.58,21.617 -49.3,44.776 -57.77,82.73 -19.29,-68.223 -67.337,-103.762 -138.608,-104.655 -26.667,-0.333 -58.367,2.092 -83.92,-6.028 -33.461,-10.633 -66.50214,-62.08503 -82.30314,-93.04403 197.87547,0.005 412.59534,1.514 610.48024,1.63353 z"
       id="path4"
       style="fill:#405bc4;fill-opacity:1"
       sodipodi:nodetypes="cccccscc" />
    <path
       fill="#e8ecee"
       d="m 1067.38,955.893 c -27.92,-47.253 -20,-107.456 19.19,-145.882 39.19,-38.426 99.53,-45.163 146.23,-16.325 46.7,28.838 67.7,85.812 50.89,138.058 -16.81,52.247 -67.09,86.286 -121.85,82.486 -29.73,-2.06 -57.62,-15.184 -78.17,-36.78 -6.23,-6.546 -11.69,-13.778 -16.29,-21.557 z"
       id="path5" />
    <path
       fill="#090961"
       d="m 1165.51,855.502 c 25.18,-2.789 47.85,15.382 50.61,40.568 2.76,25.186 -15.44,47.834 -40.63,50.562 -25.14,2.724 -47.74,-15.436 -50.5,-40.58 -2.75,-25.143 15.38,-47.765 40.52,-50.55 z"
       id="path6" />
  </g>
</svg>
